<svg version="1.1" viewBox="0.0 0.0 960.0 720.0" fill="none" stroke="none" stroke-linecap="square" stroke-miterlimit="10" xmlns:xlink="http://www.w3.org/1999/xlink" xmlns="http://www.w3.org/2000/svg"><clipPath id="p.0"><path d="m0 0l960.0 0l0 720.0l-960.0 0l0 -720.0z" clip-rule="nonzero"/></clipPath><g clip-path="url(#p.0)"><path fill="#000000" fill-opacity="0.0" d="m0 0l960.0 0l0 720.0l-960.0 0z" fill-rule="evenodd"/><path fill="#000000" fill-opacity="0.0" d="m206.61757 100.1709l837.3229 0l0 342.58267l-837.3229 0z" fill-rule="evenodd"/><path fill="#ee6c4d" d="m220.68007 365.1709l45.875015 -215.98438l29.0625 0l46.125 215.98438l-28.53125 0l-9.859375 -54.390625l-44.0 0l-10.406265 54.390625l-28.265625 0zm42.67189 -76.0l36.0 0l-18.140625 -97.328125l-17.859375 97.328125zm133.58545 78.140625q-19.453125 0 -29.0625 -14.265625q-9.59375 -14.28125 -9.59375 -48.40625l0 -29.859375q0 -17.609375 2.921875 -32.671875q2.9375 -15.0625 11.0625 -24.125q8.140625 -9.078125 23.875 -9.078125q7.734375 0 14.125 3.46875q6.40625 3.46875 11.484375 8.53125l0 -71.71875l28.53125 0l0 215.98438l-28.53125 0l0 -9.859375q-5.078125 5.328125 -11.078125 8.671875q-6.0 3.328125 -13.734375 3.328125zm7.203125 -22.40625q4.0 0 8.53125 -1.46875q4.53125 -1.46875 9.078125 -4.390625l0 -101.0625q-3.734375 -2.671875 -8.28125 -4.671875q-4.53125 -2.0 -9.859375 -2.0q-9.859375 0 -13.328125 9.46875q-3.46875 9.46875 -3.46875 22.796875l0 43.46875q0 10.65625 1.1875 19.328125q1.203125 8.671875 4.9375 13.609375q3.734375 4.921875 11.203125 4.921875zm75.73703 20.265625l0 -154.125l28.53125 0l0 21.859375q8.53125 -14.125 17.0625 -18.921875q8.53125 -4.8125 17.0625 -4.8125q1.078125 0 2.0 0q0.9375 0 2.53125 0.265625l0 31.46875q-3.1875 -1.328125 -7.328125 -2.265625q-4.125 -0.9375 -8.40625 -0.9375q-6.65625 0 -12.125 3.078125q-5.46875 3.0625 -10.796875 11.859375l0 112.53125l-28.53125 0zm86.65912 0l0 -154.125l28.53125 0l0 154.125l-28.53125 0zm0 -177.0625l0 -29.859375l28.53125 0l0 29.859375l-28.53125 0zm86.923645 179.20312q-9.0625 0 -16.0 -5.203125q-6.921875 -5.203125 -10.921875 -13.328125q-4.0 -8.140625 -4.0 -17.203125q0 -14.40625 4.796875 -24.265625q4.796875 -9.875 13.1875 -16.671875q8.40625 -6.796875 19.46875 -11.859375q11.078125 -5.078125 23.34375 -9.875l0 -10.9375q0 -9.328125 -1.078125 -15.453125q-1.0625 -6.140625 -4.390625 -9.203125q-3.328125 -3.0625 -10.0 -3.0625q-5.859375 0 -9.46875 2.671875q-3.59375 2.65625 -5.203125 7.59375q-1.59375 4.921875 -1.59375 11.59375l0 7.734375l-28.265625 -1.0625q0.53125 -25.609375 11.734375 -37.734375q11.203125 -12.140625 34.65625 -12.140625q22.9375 0 32.53125 12.546875q9.609375 12.53125 9.609375 36.25l0 70.40625q0 7.203125 0.390625 13.875q0.40625 6.65625 1.0625 12.390625q0.671875 5.734375 1.21875 10.796875l-26.140625 0q-0.796875 -4.265625 -2.0 -10.796875q-1.203125 -6.53125 -1.734375 -11.875q-2.671875 9.078125 -10.265625 16.953125q-7.59375 7.859375 -20.9375 7.859375zm11.203125 -24.546875q4.265625 0 8.0 -2.390625q3.734375 -2.40625 6.671875 -5.46875q2.9375 -3.0625 4.0 -4.9375l0 -43.734375q-6.671875 3.734375 -12.546875 7.46875q-5.859375 3.734375 -10.265625 7.875q-4.390625 4.125 -6.921875 9.328125q-2.53125 5.203125 -2.53125 11.875q0 9.328125 3.46875 14.65625q3.46875 5.328125 10.125 5.328125zm74.673645 22.40625l0 -154.125l28.53125 0l0 15.203125q7.734375 -7.203125 17.0625 -12.265625q9.328125 -5.078125 20.53125 -5.078125q9.328125 0 14.265625 4.8125q4.9375 4.796875 6.9375 12.0q2.0 7.1875 2.0 14.65625l0 124.796875l-28.53125 0l0 -116.53125q0 -8.265625 -2.40625 -12.796875q-2.40625 -4.53125 -9.859375 -4.53125q-4.8125 0 -10.015625 2.796875q-5.1875 2.796875 -9.984375 6.796875l0 124.265625l-28.53125 0zm144.78082 2.140625q-9.0625 0 -16.0 -5.203125q-6.921875 -5.203125 -10.921875 -13.328125q-4.0 -8.140625 -4.0 -17.203125q0 -14.40625 4.796875 -24.265625q4.796875 -9.875 13.1875 -16.671875q8.40625 -6.796875 19.46875 -11.859375q11.078125 -5.078125 23.34375 -9.875l0 -10.9375q0 -9.328125 -1.078125 -15.453125q-1.0625 -6.140625 -4.390625 -9.203125q-3.328125 -3.0625 -10.0 -3.0625q-5.859375 0 -9.46875 2.671875q-3.59375 2.65625 -5.203125 7.59375q-1.59375 4.921875 -1.59375 11.59375l0 7.734375l-28.265625 -1.0625q0.53125 -25.609375 11.734375 -37.734375q11.203125 -12.140625 34.65625 -12.140625q22.9375 0 32.53125 12.546875q9.609375 12.53125 9.609375 36.25l0 70.40625q0 7.203125 0.390625 13.875q0.40625 6.65625 1.0625 12.390625q0.671875 5.734375 1.21875 10.796875l-26.140625 0q-0.796875 -4.265625 -2.0 -10.796875q-1.203125 -6.53125 -1.734375 -11.875q-2.671875 9.078125 -10.265625 16.953125q-7.59375 7.859375 -20.9375 7.859375zm11.203125 -24.546875q4.265625 0 8.0 -2.390625q3.734375 -2.40625 6.671875 -5.46875q2.9375 -3.0625 4.0 -4.9375l0 -43.734375q-6.671875 3.734375 -12.546875 7.46875q-5.859375 3.734375 -10.265625 7.875q-4.390625 4.125 -6.921875 9.328125q-2.53125 5.203125 -2.53125 11.875q0 9.328125 3.46875 14.65625q3.46875 5.328125 10.125 5.328125z" fill-rule="nonzero"/><path fill="#000000" fill-opacity="0.0" d="m-7.0256104 277.24643l837.3229 0l0 342.58267l-837.3229 0z" fill-rule="evenodd"/><path fill="#ee6c4d" d="m69.70876 544.65265q-18.671875 0 -31.078125 -8.0q-12.390623 -8.0 -18.796873 -22.125q-6.390626 -14.1405945 -7.453126 -32.81247l26.65625 -7.203125q0.796875 11.46875 3.59375 22.140625q2.8125 10.65625 9.203125 17.46872q6.40625 6.796875 17.875 6.796875q11.734375 0 17.734375 -6.53125q6.0 -6.5468445 6.0 -18.81247q0 -14.65625 -6.671875 -23.59375q-6.671875 -8.9375 -16.796875 -18.0l-36.265625 -32.0q-10.671873 -9.328125 -15.734373 -20.390625q-5.062501 -11.078125 -5.062501 -27.34375q0 -23.71875 13.593751 -36.78125q13.593748 -13.078125 37.0625 -13.078125q12.796875 0 22.53125 3.34375q9.734375 3.328125 16.265625 10.265625q6.53125 6.921875 10.390625 17.453125q3.875 10.53125 5.21875 24.671875l-25.609375 6.9375q-0.796875 -10.671875 -3.203125 -19.59375q-2.390625 -8.9375 -8.390625 -14.40625q-6.0 -5.46875 -17.203125 -5.46875q-11.203125 0 -17.46875 6.0q-6.265625 6.0 -6.265625 17.734375q0 9.859375 3.328125 16.265625q3.34375 6.390625 10.8125 13.0625l36.53125 32.0q12.265625 10.671875 21.59375 25.46875q9.34375 14.796875 9.34375 35.0625q0 16.0 -6.671875 27.609344q-6.671875 11.59375 -18.265625 17.734375q-11.59375 6.125 -26.796875 6.125zm113.86274 -0.265625q-12.0 0 -19.34375 -4.53125q-7.328125 -4.546875 -10.671875 -12.8125q-3.328125 -8.265625 -3.328125 -19.46872l0 -100.515625l-16.265625 0l0 -18.9375l16.265625 0l0 -45.0625l28.546875 0l0 45.0625l24.796875 0l0 18.9375l-24.796875 0l0 98.65625q0 9.0624695 2.921875 12.9374695q2.9375 3.859375 11.203125 3.859375q2.140625 0 4.9375 -0.265625q2.796875 -0.265625 5.46875 -0.53125l0 21.0625q-5.34375 0.796875 -9.875 1.203125q-4.53125 0.40625 -9.859375 0.40625zm68.78635 0q-9.0625 0 -16.0 -5.203125q-6.921875 -5.203125 -10.921875 -13.328125q-4.0 -8.140625 -4.0 -17.203094q0 -14.40625 4.796875 -24.265625q4.796875 -9.875 13.1875 -16.671875q8.40625 -6.796875 19.46875 -11.859375q11.078125 -5.078125 23.34375 -9.875l0 -10.9375q0 -9.328125 -1.078125 -15.453125q-1.0625 -6.140625 -4.390625 -9.203125q-3.328125 -3.0625 -10.0 -3.0625q-5.859375 0 -9.46875 2.671875q-3.59375 2.65625 -5.203125 7.59375q-1.59375 4.921875 -1.59375 11.59375l0 7.734375l-28.265625 -1.0625q0.53125 -25.609375 11.734375 -37.734375q11.203125 -12.140625 34.65625 -12.140625q22.9375 0 32.53125 12.546875q9.609375 12.53125 9.609375 36.25l0 70.40625q0 7.2030945 0.390625 13.8749695q0.40625 6.65625 1.0625 12.390625q0.671875 5.734375 1.21875 10.796875l-26.140625 0q-0.796875 -4.265625 -2.0 -10.796875q-1.203125 -6.53125 -1.734375 -11.875q-2.671875 9.078125 -10.265625 16.953125q-7.59375 7.859375 -20.9375 7.859375zm11.203125 -24.546875q4.265625 0 8.0 -2.390625q3.734375 -2.40625 6.671875 -5.4687195q2.9375 -3.0625 4.0 -4.9375l0 -43.734375q-6.671875 3.734375 -12.546875 7.46875q-5.859375 3.734375 -10.265625 7.875q-4.390625 4.125 -6.921875 9.328125q-2.53125 5.203125 -2.53125 11.875q0 9.328125 3.46875 14.6562195q3.46875 5.328125 10.125 5.328125zm74.673645 22.40625l0 -154.12497l28.53125 0l0 15.203125q7.734375 -7.203125 17.0625 -12.265625q9.328125 -5.078125 20.53125 -5.078125q9.328125 0 14.265625 4.8125q4.9375 4.796875 6.9375 12.0q2.0 7.1875 2.0 14.65625l0 124.796844l-28.53125 0l0 -116.53122q0 -8.265625 -2.40625 -12.796875q-2.40625 -4.53125 -9.859375 -4.53125q-4.8125 0 -10.015625 2.796875q-5.1875 2.796875 -9.984375 6.796875l0 124.265594l-28.53125 0zm159.18704 2.140625q-18.9375 0 -28.671875 -7.59375q-9.734375 -7.609375 -13.0625 -21.46875q-3.328125 -13.8749695 -3.328125 -32.28122l0 -35.453125q0 -19.46875 3.46875 -33.203125q3.46875 -13.734375 13.1875 -21.0625q9.734375 -7.34375 28.40625 -7.34375q16.796844 0 25.99997 5.46875q9.203125 5.46875 12.65625 16.265625q3.46875 10.796875 3.46875 26.796875l0 9.078125l-25.859375 0l0 -9.34375q0 -10.125 -1.34375 -15.984375q-1.3280945 -5.875 -4.7968445 -8.53125q-3.453125 -2.671875 -9.859375 -2.671875q-6.9375 0 -10.671875 3.203125q-3.734375 3.1875 -4.9375 10.796875q-1.1875 7.59375 -1.1875 20.65625l0 48.53125q0 19.734375 3.734375 26.40622q3.734375 6.65625 13.328125 6.65625q7.203125 0 10.53125 -3.328125q3.34375 -3.328125 4.2655945 -9.4530945q0.9375 -6.140625 0.9375 -13.875l0 -12.53125l25.859375 0l0 10.65625q0 15.46875 -3.59375 26.671844q-3.59375 11.203125 -12.796875 17.078125q-9.203125 5.859375 -25.734344 5.859375zm69.33005 -2.140625l0 -154.12497l28.53125 0l0 154.12497l-28.53125 0zm0 -177.06247l0 -29.859375l28.53125 0l0 29.859375l-28.53125 0zm81.329895 179.2031q-9.0625 0 -14.140625 -4.796875q-5.0625 -4.8125 -7.0625 -12.0q-2.0 -7.203125 -2.0 -14.671875l0 -124.796844l28.53125 0l0 116.265625q0 8.2655945 2.40625 12.9374695q2.40625 4.65625 9.859375 4.65625q4.8125 0 10.0 -2.796875q5.203125 -2.796875 10.0 -6.796875l0 -124.265594l28.53125 0l0 154.12497l-28.53125 0l0 -15.203125q-7.46875 7.203125 -16.9375 12.28125q-9.453125 5.0625 -20.65625 5.0625z" fill-rule="nonzero"/></g></svg>